<?xml version="1.0" standalone="no"?>
<!DOCTYPE svg PUBLIC "-//W3C//DTD SVG 20010904//EN"
 "http://www.w3.org/TR/2001/REC-SVG-20010904/DTD/svg10.dtd">
<svg version="1.0" xmlns="http://www.w3.org/2000/svg"
 width="1024.000000pt" height="1024.000000pt" viewBox="0 0 1024.000000 1024.000000"
 preserveAspectRatio="xMidYMid meet">

<g transform="translate(0.000000,1024.000000) scale(0.100000,-0.100000)"
fill="#000000" stroke="none">
<path d="M4803 7490 c-73 -8 -90 -11 -282 -57 -344 -81 -600 -200 -876 -406
-100 -75 -293 -268 -367 -367 -69 -92 -147 -230 -194 -341 -40 -94 -84 -255
-84 -305 0 -25 -11 -46 -50 -90 -76 -87 -340 -429 -393 -509 -107 -163 -80
-278 97 -405 54 -38 75 -59 70 -70 -41 -106 -43 -239 -5 -291 l23 -31 -21 -47
c-51 -112 -69 -338 -35 -452 62 -209 226 -365 442 -420 73 -18 131 -19 2009
-19 2118 0 1985 -4 2017 59 24 46 20 86 -13 123 l-29 33 -1959 5 -1958 5 -56
23 c-112 45 -177 111 -221 221 -17 45 -22 75 -21 152 0 110 22 172 71 207 33
24 62 77 62 114 0 33 -54 95 -90 103 -17 4 -30 10 -30 15 0 5 11 55 25 112 31
127 32 186 5 221 -19 24 -179 143 -206 154 -35 13 3 76 164 272 51 62 110 139
131 170 50 71 105 124 156 148 l40 18 6 140 c6 125 10 149 37 220 33 85 90
154 143 174 23 8 27 18 38 85 7 42 17 78 22 82 5 3 23 32 39 63 43 87 167 189
270 223 50 17 70 14 70 -9 0 -24 31 -42 71 -43 45 0 76 31 85 85 16 102 145
225 299 285 52 21 79 24 205 25 l145 2 60 36 c92 55 187 77 330 77 155 0 284
-20 237 -37 -72 -26 -188 -151 -249 -270 l-37 -71 -55 -7 c-72 -9 -183 -50
-246 -90 -64 -40 -153 -137 -195 -210 -31 -53 -34 -56 -64 -51 -226 40 -403
-8 -558 -153 -121 -113 -188 -268 -188 -436 l0 -81 -35 -13 c-19 -7 -51 -27
-70 -45 -30 -29 -35 -40 -35 -80 0 -39 5 -53 29 -77 16 -16 38 -29 48 -29 37
0 86 20 111 45 32 33 64 49 120 65 36 9 46 18 59 47 13 32 13 40 -1 77 -20 51
-20 144 -2 212 46 175 258 302 445 267 l43 -8 2 -130 c2 -140 20 -211 67 -261
36 -39 121 -30 156 15 17 22 16 65 -2 131 -16 57 -21 191 -10 257 11 60 73
181 114 222 77 77 201 131 301 131 30 0 65 3 77 6 24 7 76 98 88 154 11 52
151 187 235 227 36 17 83 36 105 42 57 16 210 14 280 -4 58 -14 317 -139 336
-161 7 -8 -2 -14 -28 -19 -113 -21 -277 -128 -319 -207 -42 -80 27 -170 107
-139 14 5 60 34 102 64 104 75 155 91 271 85 143 -8 187 -29 271 -134 203
-250 305 -450 367 -719 39 -169 35 -447 -8 -620 -31 -122 -35 -136 -42 -131
-4 2 -7 -8 -8 -24 -2 -53 -128 -285 -155 -285 -6 0 -18 -11 -27 -25 l-14 -25
21 25 c11 14 21 21 21 15 0 -5 -17 -28 -38 -49 -30 -32 -38 -36 -40 -22 -3 14
-7 15 -18 5 -11 -9 -12 -15 -2 -28 7 -9 8 -13 4 -9 -5 5 -14 -2 -21 -15 -6
-12 -17 -21 -23 -19 -7 1 -11 -1 -11 -5 4 -22 -2 -25 -14 -9 -13 17 -14 18
-20 2 -4 -10 -3 -15 3 -11 6 3 10 -1 10 -9 0 -8 -5 -18 -12 -22 -7 -5 -8 -3
-3 7 7 12 6 12 -7 1 -11 -9 -18 -10 -23 -2 -9 15 -25 12 -25 -4 0 -8 -7 -17
-16 -20 -8 -3 -12 -10 -9 -16 4 -6 12 -7 18 -3 7 4 6 0 -2 -10 -16 -20 -25
-22 -16 -4 4 6 -2 2 -12 -9 -17 -21 -60 -46 -143 -84 l-35 -17 -1 55 c0 47 -4
58 -28 78 -32 28 -99 33 -133 9 -26 -18 -42 -70 -44 -135 -1 -30 -3 -38 -7
-24 -6 17 -12 20 -27 14 -12 -4 -27 -16 -35 -26 -14 -16 -13 -17 8 -12 14 4
20 2 16 -4 -5 -7 2 -9 20 -6 14 3 26 2 26 -3 0 -18 -123 -34 -260 -34 -120 0
-159 4 -230 23 -234 64 -419 222 -490 417 -20 56 -52 86 -97 92 -39 5 -46 2
-77 -29 -30 -30 -36 -44 -42 -98 l-7 -62 -56 -27 c-51 -24 -67 -26 -176 -26
-111 0 -124 2 -177 28 -70 34 -121 90 -160 174 -28 58 -30 71 -26 141 6 97 55
209 124 282 52 56 161 128 240 159 61 23 178 41 275 41 75 0 123 15 152 47 10
12 23 55 32 108 31 190 126 295 305 334 200 44 265 80 340 189 27 40 60 141
60 183 0 46 -27 89 -66 105 -64 27 -116 -8 -140 -96 -30 -102 -82 -146 -199
-169 -160 -32 -251 -78 -342 -174 -73 -78 -136 -196 -148 -278 l-7 -46 -98 -7
c-108 -7 -182 -24 -272 -60 -188 -76 -342 -229 -423 -420 l-29 -69 -77 7
c-250 21 -413 153 -509 414 -26 73 -49 92 -106 92 -84 0 -118 -68 -89 -181 77
-301 351 -521 682 -546 68 -6 73 -7 73 -29 0 -62 91 -223 167 -296 173 -167
488 -211 721 -101 l53 25 61 -66 c143 -156 335 -257 562 -297 100 -17 407 -6
511 19 299 71 545 213 725 419 185 212 300 467 341 753 18 125 15 385 -6 504
-99 572 -514 1110 -1074 1390 -177 89 -422 166 -693 217 -125 24 -461 34 -595
19z m1689 -2882 c-9 -9 -12 -7 -12 12 0 19 3 21 12 12 9 -9 9 -15 0 -24z"/>
<path d="M6245 6276 c-110 -27 -235 -123 -307 -236 -68 -107 -77 -182 -29
-231 59 -59 122 -28 181 88 81 158 248 227 392 159 102 -47 172 -27 184 55 8
52 -23 91 -98 128 -102 50 -216 63 -323 37z"/>
<path d="M6448 5710 c-30 -23 -48 -86 -48 -168 0 -115 -87 -235 -194 -267 -67
-20 -109 -19 -156 5 -55 28 -91 26 -123 -8 -45 -47 -31 -134 29 -177 56 -38
212 -49 312 -20 87 25 153 68 212 137 89 106 130 219 130 364 0 83 -14 115
-61 140 -38 19 -72 18 -101 -6z"/>
<path d="M5528 5616 c-54 -19 -116 -68 -170 -136 -31 -38 -56 -60 -69 -60 -33
0 -89 -62 -89 -99 0 -38 23 -86 45 -95 33 -12 107 -5 144 14 21 10 69 53 107
94 61 67 77 79 138 100 90 33 106 48 106 102 0 35 -5 47 -31 68 -25 21 -40 26
-87 26 -31 -1 -74 -7 -94 -14z"/>
<path d="M6846 5115 c-9 -26 -7 -32 5 -12 6 10 9 21 6 23 -2 3 -7 -2 -11 -11z"/>
<path d="M5770 5053 c-39 -11 -62 -30 -94 -79 -40 -60 -94 -96 -172 -114 -89
-20 -124 -88 -80 -154 26 -41 60 -50 137 -37 160 26 344 194 325 296 -10 51
-73 99 -116 88z"/>
<path d="M6810 5034 c0 -8 5 -12 10 -9 6 4 8 11 5 16 -9 14 -15 11 -15 -7z"/>
<path d="M6643 4775 c0 -8 4 -12 9 -9 5 3 6 10 3 15 -9 13 -12 11 -12 -6z"/>
<path d="M6560 4710 c0 -5 7 -10 16 -10 8 0 12 5 9 10 -3 6 -10 10 -16 10 -5
0 -9 -4 -9 -10z"/>
<path d="M6318 4563 c7 -3 16 -2 19 1 4 3 -2 6 -13 5 -11 0 -14 -3 -6 -6z"/>
<path d="M7912 2730 c0 -19 2 -27 5 -17 2 9 2 25 0 35 -3 9 -5 1 -5 -18z"/>
<path d="M7930 2729 l0 -24 145 0 c130 -1 148 -3 172 -21 21 -16 29 -31 31
-62 l3 -42 -168 0 c-92 0 -174 -4 -180 -8 -7 -4 -15 -41 -19 -82 -3 -41 -7
-91 -9 -110 -2 -19 -4 -47 -4 -62 -1 -24 -6 -27 -43 -32 -440 -59 -3849 -76
-5048 -26 -223 9 -435 35 -938 115 l-164 26 -41 -25 c-76 -46 -72 -41 -53 -70
9 -14 23 -26 31 -26 7 0 20 -6 27 -13 16 -17 152 -81 191 -91 15 -3 27 -11 27
-16 0 -6 14 -10 31 -10 17 0 45 -6 62 -14 18 -7 48 -19 67 -26 19 -7 44 -16
55 -20 11 -4 40 -13 65 -20 25 -6 58 -18 73 -26 16 -8 40 -14 53 -14 14 0 38
-7 53 -15 16 -8 68 -22 117 -30 49 -9 97 -21 108 -27 13 -7 21 -6 26 1 5 8 14
8 34 -3 15 -7 22 -16 16 -18 -6 -2 11 -4 37 -5 70 -2 139 -9 150 -16 5 -4 81
-9 169 -12 87 -3 161 -10 164 -15 3 -6 58 -11 121 -11 196 -3 209 -4 209 -11
0 -5 7 -8 15 -8 8 0 15 3 15 8 0 10 256 3 300 -8 19 -5 38 -6 42 -2 5 5 30 6
56 2 86 -10 1397 1 1379 12 -7 4 22 7 63 5 55 -1 79 -6 92 -19 10 -10 25 -18
33 -18 7 0 18 -7 23 -15 4 -9 33 -20 68 -25 55 -10 98 -12 414 -25 133 -6 721
-16 830 -14 347 4 882 29 897 41 7 5 16 7 21 4 5 -3 37 -1 73 4 35 5 87 11
114 14 110 10 212 29 245 45 123 62 187 91 199 91 8 0 22 6 30 14 17 14 82 34
139 43 18 3 35 9 38 14 3 5 17 9 32 9 26 0 100 58 103 81 2 13 5 22 14 42 12
27 -2 118 -26 172 -15 34 -18 50 -10 58 17 17 13 26 -9 20 -13 -3 -20 0 -20 9
0 12 -22 11 -147 -4 -206 -24 -213 -24 -213 7 0 24 3 25 58 25 65 0 276 17
310 25 21 5 22 11 22 89 0 55 -4 87 -13 94 -18 15 -123 30 -260 37 -92 5 -127
11 -158 27 -33 17 -64 21 -189 26 l-150 5 0 -24z m617 -75 c111 -8 127 -15
131 -52 l3 -32 -193 2 -193 3 -3 49 -3 49 93 -7 c51 -4 125 -10 165 -12z
m-275 -234 l-4 -40 -169 0 -169 0 0 30 0 30 165 0 c103 0 165 4 165 10 0 6 3
10 8 10 4 0 6 -18 4 -40z m-8 -90 c-7 -7 -263 -30 -330 -30 -8 0 -14 9 -14 20
0 19 7 20 123 21 67 0 145 4 172 7 48 7 67 0 49 -18z m-34 -64 c0 -9 -21 -15
-71 -20 -75 -7 -89 -4 -89 20 0 11 17 14 80 14 61 0 80 -3 80 -14z m-195 -112
c-23 -36 -48 -42 -207 -53 -484 -34 -1590 -40 -2054 -11 -152 9 -187 9 -222
-3 -47 -16 -55 -6 -17 19 21 13 42 15 123 11 525 -31 1272 -39 1807 -18 510
20 556 27 572 89 5 20 8 23 11 9 2 -10 -4 -29 -13 -43z m-2412 -11 c-7 -2 -21
-2 -30 0 -10 3 -4 5 12 5 17 0 24 -2 18 -5z m144 -9 c-3 -3 -12 -4 -19 -1 -8
3 -5 6 6 6 11 1 17 -2 13 -5z m2423 -35 c-40 -34 -106 -55 -200 -63 -207 -19
-630 -36 -986 -40 -310 -3 -360 -3 -204 4 113 4 320 10 460 14 289 6 729 32
807 46 61 11 100 29 127 59 11 12 22 18 25 15 3 -3 -10 -19 -29 -35z m-2240
-65 c129 -8 321 -19 425 -23 163 -7 174 -8 75 -9 -63 -1 -232 5 -375 13 -333
18 -477 21 -541 11 -35 -6 -53 -5 -58 3 -4 6 -2 9 6 6 8 -3 32 -1 53 4 60 14
156 13 415 -5z"/>
<path d="M1522 2573 c-57 -14 -101 -27 -98 -30 2 -3 50 5 107 16 56 12 103 21
105 21 2 0 4 5 4 10 0 12 8 13 -118 -17z"/>
<path d="M1518 2533 c-65 -2 -118 -7 -118 -12 0 -13 97 -31 165 -31 l64 0 4
-32 c2 -20 4 -11 5 25 1 31 1 56 0 55 -2 -1 -56 -4 -120 -5z"/>
</g>
</svg>
